<?xml version="1.0" standalone="no"?>
<!DOCTYPE svg PUBLIC "-//W3C//DTD SVG 20010904//EN"
 "http://www.w3.org/TR/2001/REC-SVG-20010904/DTD/svg10.dtd">
<svg version="1.0" xmlns="http://www.w3.org/2000/svg"
 width="180.000000pt" height="180.000000pt" viewBox="0 0 180.000000 180.000000"
 preserveAspectRatio="xMidYMid meet">
<metadata>
Created by potrace 1.11, written by Peter Selinger 2001-2013
</metadata>
<g transform="translate(0.000000,180.000000) scale(0.100000,-0.100000)"
fill="#000000" stroke="none">
<path d="M239 1780 c-7 -5 -16 -7 -20 -4 -4 2 -10 0 -14 -6 -4 -6 -10 -8 -15
-5 -4 3 -13 -2 -20 -10 -7 -8 -17 -15 -22 -15 -25 0 -116 -119 -123 -160 0 -3
-3 -9 -7 -15 -8 -14 -3 -1294 6 -1330 4 -16 12 -35 18 -42 6 -7 7 -13 3 -13
-4 0 -2 -7 5 -15 7 -8 10 -15 6 -15 -6 0 45 -51 80 -80 11 -9 37 -24 59 -35
39 -19 62 -20 695 -19 360 0 668 4 683 8 39 9 107 53 139 90 23 26 58 85 63
106 1 3 4 12 8 20 7 19 3 1308 -5 1335 -15 54 -92 155 -117 155 -6 0 -11 3
-11 8 0 4 -19 16 -42 27 -41 19 -70 20 -699 21 -361 1 -662 -2 -670 -6z"/>
</g>
</svg>
